<mxfile host="app.diagrams.net" modified="2021-05-20T22:02:51.965Z" agent="5.0 (Windows NT 10.0; WOW64) AppleWebKit/537.36 (KHTML, like Gecko) Chrome/89.0.4389.90 Safari/537.36" etag="OjVHE_2nrLOgAcFtTP5l" version="14.6.10" type="github">
  <diagram id="hlQTOuvJEKbNYZiJXT79" name="Page-1">
    <mxGraphModel dx="1404" dy="666" grid="1" gridSize="10" guides="1" tooltips="1" connect="1" arrows="1" fold="1" page="1" pageScale="1" pageWidth="827" pageHeight="1169" math="0" shadow="0">
      <root>
        <mxCell id="0" />
        <mxCell id="1" parent="0" />
        <mxCell id="UONCgqDGB37mJuwjFdoh-25" value="VMWare infrastructure&lt;br&gt;&lt;br&gt;Network&amp;nbsp; &amp;nbsp; &amp;nbsp; &amp;nbsp; &amp;nbsp; &amp;nbsp; &amp;nbsp; &amp;nbsp; Storage&lt;br&gt;VIrtual Switch&amp;nbsp; &amp;nbsp; &amp;nbsp; &amp;nbsp; &amp;nbsp; &amp;nbsp; &amp;nbsp;Virtual IO&amp;nbsp;&amp;nbsp;" style="rounded=1;whiteSpace=wrap;html=1;" vertex="1" parent="1">
          <mxGeometry x="420" y="480" width="210" height="135" as="geometry" />
        </mxCell>
        <mxCell id="UONCgqDGB37mJuwjFdoh-1" value="&lt;font style=&quot;font-size: 24px&quot;&gt;NovaCura physical overview layout - PoC&lt;/font&gt;" style="text;html=1;strokeColor=none;fillColor=none;align=center;verticalAlign=middle;whiteSpace=wrap;rounded=0;" vertex="1" parent="1">
          <mxGeometry x="20" y="40" width="570" height="40" as="geometry" />
        </mxCell>
        <mxCell id="UONCgqDGB37mJuwjFdoh-2" value="" style="shape=image;verticalLabelPosition=bottom;labelBackgroundColor=#ffffff;verticalAlign=top;aspect=fixed;imageAspect=0;image=data:image/png,iVBORw0KGgoAAAANSUhEUgAAATYAAACjCAMAAAA3vsLfAAAA/1BMVEX///8ASXb//v////0AsOH///wASHf8//8ASXUAR3X//f8AOmcBSHQAsOIRTXGXtsjg7fIAQW0WTXRchaBIcY07Yns2Xnz3//8APGHw+v0AL1jI2d8AQWoAst9Ba4nz///Y7/kAQHBbgZrr//8AN2AAp9MAqtvh//8AruQALVoASHsAN19At9QAqNB1kKCowdAANmbW/f+An7BixN7k+P/F9v204esUqcuc4+5dv9oAqtSt5/M4tNaF1ukNocO58vdc0Oatx9J4nLGKq7sAMFUARGcucp43a4yryNWQ1ulTe5oqWXpOdYrD5fJWwtjQ5Oqnyt+Ky9eHpboAJFKc2u2cKTofAAAV9ElEQVR4nO1cC1vbxrYdaSyNZMuACUExYBTjB0bg8C4BQ3OAyw0pbXyb9v//lrvXHsmSsfzg3NDm3M7KF8exJc1oac9+j4UwMDAwMDAwMDAwMDAwMDAwMDAwMDAwMDAwMDAwMDAwMDAwMDAwMDAwMDAwMDAwMDAwMPh7oZSQjhRS2GVbpR9KyS82oWz/jZP7QcHE2EQQeMK70Rf4KyVRym8NxiDtchnyJmwWrkyybBs8Qg6loW0SSknHkTbJFctWDvRf+ox4LP9dc/txYSut1vRyVSPe6J0NSukAZXTbJBwHSxHrkFgTdrogScsRZ1i3jlKzzv+HwpHabEo5psTKttTf0Bo2tE0Cmk1G5z/9NNhVOd6g1lr06fmusrGG1Rx7KnOvcwZ8/n/+YKYiSOalH1/Rkc+e+egMjcQ/UNrsLTDFRSAdcfz1otPpXH9sZbOgIc4v6cOrg0FkM21TbkzPmD28OTc/OkHrUT0MawkB6Z52PB+ocJpiI1VwoJIJb6yk6dK0VITtpF+X834VLrHALOfcA4maOL7ulkrVarVzE7F5sHkOxwfdXqlR6vY/8pz1xxOnO+mM7UUNR3agvpyUs2WgDNNEqkKy2piiaG19JUfy5eHAyxw7kh+NQ5NV7KQuONMZoCu2vnaIs2qjWuoPFI+LqUWnnVKjUeqVSj9/EuyIjDjKwUlWmJMwMH9GqZw5QoX1EB+A8xknggbMSYWRDmeKrqlHF0JfEuw4mQOAk8J6pCX2O61TRw76pW6pWmoQc5ckbjaJsV0Wg36v2iAZLPU6/wJtQtWnINQz47U6fzybl7QU0ebJztrOh8MzDDhTK7LGUMOTnV8/HNbF5CKViW6QYmWZLnm/ImDF5Ehj0BOqH+5sr33YDPns76Pedq+JM0KPKLre1dMs263LbpVlsFRtNIQjotsPa9uFoHtf/u0sZGGcPxqWOg5cedOuNONms7J0CO02I+7lpxEuv6s0a7XK2nBykUr4m/TY1ObSUbNZqyw9KvaqMrxf22g2/dreXf17WQSpvnQgaUQbrcjrY5E83Y+0RCFr9NooCXm21q75rl8ImunR6pvHM73A50CzplbWjyzLcgn+xjLxZk+PRGw4lMv7cRxbVlx7Opu8BbiYpLw2H2px7LpxbWszJ2uE+tu2xafv3S00x/kgzX8BYnpMUC+RNgkRhGYjS0HSVhLRdtOlm7QCdxy+R8Dd+82jp/vWAg6eNiBn6zXXolMDz3O9/7qdqdtA3HDJxyBEdOVk8pI2r/ForYkZBp7V3K4LkXnu4r7tWYHve4G1MRzPV/zbiG4Sseo1GtXuKUwpPZAQn1Z57RJ9p+JxI3ZpQque9Qwu/SXiwF1ceViO5o7Hca/aqRAL+gqBFzy8n6Lq9Rn0Z7kd+wE9Hs/198PJA5i6YZufo+W57v5QmxENtR7HPmZo+c07dpX+bbbS4cT5BWu2RqNHEndxTloMD/6434MVrYK5an8g/ruWsITh6Z84FTeWNsAn6QmOPg9ZFc32XYV4bENyNGLXq70JHZX6MYVnvCHhxBCBZW28L7yqLQ4ro4dZWU5HAucrq3RyMss1sZjhmjp5OA9l0brsYHViKZLfdkpPktSpHZ52odO0TWhchiK9SY8EzoOMeRmCgBaAz7fl1t4dqin3nhs5oiU3oo3eeHubSXqvyP2zc7TRyIW04aTlEW3+c9pGfP5fabNZm0g16JTYzyjBKpCw2RzXn//cgLLTq7R/LkV2jwET5SXCptW6xRJHaor038Y3Ncd9leK+Yo1WO6k3yw3eRjLlrYCSHG1TpO2vo42iFOXsHlR7FApUyantVjsfQ+02Rtf4CBoP+u5GORltmD2ZKysxohbsQQAiLVbvtIjad/PGPntHijLljZ4CSWn7UKQ3WkBJjjZ/EdomFul3ow22Swn15YokqgHaSLcd7DrsJrKnq5cuhO1YZrQRLVYzj1qtSequGYNBqDmisXI/x3clDlwrZ1zoov7SCgINVSRvCW3+4tL2irTxGj2/aDBYrDoDbeac1kGjxxaB/kIE6cPRuK6/+mbnTR6/bG8dubGnlyrIi48ehTN9XPHbHnkDGW0kucRb5Ruizh+eNgpoyjaFnVX2zSBxjdNWGYncsvrYYUHj1Vu6biF7mdFWexuqMYT1lcO1d1sBFB35miQ7MRyKqSNHaz54Cqwc6D9bQ/UfQBuiXTW4qiLx0QNrbA+QZCP/F8LHtNESHfAg6bAkT2/ZIx9dRseXt58rgcUGFX5I7Zdo+szgfEA3jiiD62K5zZ1oSipkEdpw1F9Bm0OC1fra7TW0Q0ur8iay4Ts55OmmVrRR6n5tcaYtEwyiLT9sWiqsf3gHp449K889OkT8DD89O5QrYRRUP22BM5+sB5kQXqNMm7/1KIpNaUYbP7hJ2thneW3adGyBtAqHnRA02ISr48RPP++DNCxd+vTikz4pT1vxqOHJlusHoI2EqfkUTdCm8+sc6Gie6LWmwwxGc60+ZcIJbWxGfG9vgjbOszl/kSWlsFOH8Mhy9LpfEkedRBD2AYmkUo/zlovRJsK7fV/fG3FC4oaMYX6GSqGm8/6BdF/M1iOOtz5vZRd228ti5iJF4FRIm0L+43V12yjnbisKO0uJaus1rlu83hxyPqpsJsiMUrB1nJw2nzZHRr/WYhIi+MOuux0h9svLGmdcwzsKHCmcAgGuv/TbTm2k41y/ILlRSNtErlSn3F6bNh36kebnxYgovncxgBWjhdu67lY56UH2oHpFnq69MG1iuMS00UL13I3N5/Pje9jcB0FwjGPXb9+L4b6VxLRkhdsnoiitM0Yb67YJ3uzX1m16FJKD6LTb4xwbFmP3a4g8spLhx05PJydLFCbA/12UNqI8vGvqmJmYgB82Nj+6vLTra00yBZBHiuCD9TMp7rKIyPIfhkVZgDxtXnGUwNrgtWnjHqJzTk72WIdx2MmV0ePrzIr2+h9Fus7m0sYzHG4lfkVg1bBK8yRwZv+wjS85aeK6+2Ru5fulUZaALMnORFJogrYCS8oS+tq0CfRj2S2kITnDQST1/6VXBzkfXfbhmLjuZQtULkYbfFUZ7iB01IqrtkKLPkcbBj5b10GVCw1YI8upcLN+SlvsvnsUciLVmbekAS9SNYlQvboltctKDLqcYmNLWro4TiZ7ziUsprJKIph1f8yXNi6wHVYS2siWbqJ8mVtyCpkP11tFKhEU7G8KOIrh05YHdeiDE3890jyNFYdTv02Pv/XwrhiB/3q0JfW53Qv2zFiHVTs3AsVYRcFWl7PgcD8406tSW7jAIkWZcNhO3TCPZm6P3zxMBtJEyLS6fuVO6eTV4wbcXlJa3moQ01lSlMVYvnKcNssqLmj4WdzxOrRBMNj50Kh2KexEz4wjzzslnfnAa/9cZOnjhWgTNMF07n7zZDwNZDvhhzYn5yz4xP7Se10IluqXGhcVIKa+tXSWKsSptC2A779IyyRCDuzBiLbOQEHblWXrspH6JA1U6O2XLFJ+qX8e3Vzzw9i907vNLStAqo6D/iS7RI4qiShybiSAFM26SPY/u/SPQJtDi7EcnfYy2hqnkUNkyjIFW42qzrKRX4LSX9b3sQhtUjjkYCSHuZq23LERfedxThOVkvU61/kVKpp3FYorPOTVidF3w+eRwg9BG5zdT520KAUzei4hgE4ZZWbWeCWKDzofdUZOLei36cVfX6uNS1uOgeU2bpxz4JZb0Sk5fdbKks8FHBdhfW0nRLvHD0Ybqrut69wS7d7AV6J7UDdXVSQmWdy6By02E6l2m0ubnma2SH3Qlu+eWnnySZgszgAHtbVoVDpQHITjKx+VUHeDGJX59pYfgTbBaciMtu71MV0HkfBxv1HSeSQSt/4nGrFMDkJSLF+ANjYJS5luOxF2RpstTiouXC/E+Z61P0wvwuxF6wESAH7AKaWnKMni/VC02UhDZvbgz1Byp0monQ+0gpA9YOejDFOq00kL0jbcTx0QF66EvncdQBChbEThC9fuIMp28iU5dLewChSmB+QHx0c6EzKNtokKt/ZIrOB1HJCkK0ciEmCPlnk7aEmuxsjzfok/1rSdcx8IGloWpY3X23IlKQG6XFDg9i5kA5zwTar03CBwH1Zy16BDHLVTQ3rTC0gU43jpTIjCRYrowq1tTaJWo0999xVo4y0baIg676OykjQT9QdkWylocKKvHS4pcIzaOVXP+nXn0qbg+tUpuEJenEIna2slnTWe1+1WKgvEzNG9ygkTmiQpmvU4L4xgNW6fjLVu5mkDJf+zWYjhXe0VaBPJbpfWaaehFT8yH6ctgUigrAadhqaNI/tj8XLaaN1hJXLuNvD87YhVPmfdZLQ9uiXPjZeisVZH8nMchUwIN74gR44WDlG0SOEtF2R3NThP8N1p09G6GHS4TNXgNkBkPog2m5yPLsehzGfnCydiX0Qbd8veVbirAQXT2kniykmdnMgWkMv1wOz6uk2QDG2i+shiNHeiMUdZ06ZbmyiUn2zpZFX4GqG8bev86u7BqI+oVLq6Cdl7kuoj6TtUqhCjlq53yQd9IW1lOmX4EHMIgFpe+7eENuE4sv7gZrTVttWYP0suI2R1uRK7XOG3Ai/euC2gjTsAikowuJx6naQ4zCKSOx85E85ptl4Jzgeu4ux2tDlAoblKzod8vvFlHm1kcQWS4j7KzCjhbUdJPzNaJeF8jC4A52MshSuZttZ20+UaNXLDtbe5ckxGm6elbYI2tGa8UnbXZsfy+KrUuEqWI0UCCnutSPkMuqkAVhtXX3WZ+UW0CeR2Kx7KeKyC9pCCTPuQ3/+R612ofBBSU5HdNL+/bcOcIKQn2pP7HqPN1eWu4jrpK0mbsNE8Hd10WaK4Vbdz2ZIOZ+HV711NGoTw53Mx2TiXDutN99u+VWLOAJFOj2tPLZlkf4i8HT8e1eD9h7Px3iIUBh38E+40EbBCpAIrXl2ZMAkwNXgi77V1ywG9Zd9R2nJfQ4ztpAaKzqxejxajhGcFQfm9W9U+SbXROQ2lKpenmATPqr0dV01Cu6bR3b7FHSAe3R8CpBEt4vGIfDF8EdPyy4vRaJLa7x0+uMwZBDM+ulNZa0OuvDxF2nDcfNriOFiDrp2s4aSlHGwwyzd2Sjifrcs0DVlCw2kIjcAe16CTerqli2NmWBbT5rvczJBtUND94eHmW+1t6jJUbS10RuNG66TwYg/GIvD99bo95VlL9a3icdaNBNZHJkToronv1wPiultrc9uLsYV7dJBTtlEDTbIenAk/52uCNrnLKREuIHwJcVv2s6tnUk7S9mwctXL4SyVIKqToT0Avbkbb8hEtOhfNpqueu/84Y8JwQtAoh1ZgnzMhGMr+nq0zlrc+E2/vfiOHzMk1udjO7rUOAhBZ9TjzkTx5h5vskZ3sH+zSZNVE//FoVM9aerMzhl+3l94F6CDn/lT4bfuHOffhbJU7vH0rJk+3uRNO1ytSHB6h8Kz7kdz9W+64+J60IX1Mmjf23SmI46Ot5TC/SlVZ3HST+h4kjpwzyXbbhu/Zuul3St1u5+BYoYAwsRVyNCE3drkZMEPT1W2onrcKv8p12xQ7ZWL+jTzd2NOuhfWwOZU0qMj6GtRX0lVd2647Tpl3F2bdlN5CvbtTpc2Fbxh7k9mA0fexT48r92gdeXzBDbnY1VJFJtwhJmmFlqEinejT6cHB5Z/YlmCXJzfzWGlVjubNt5b27rLnjuQD63xm7U6JjPX6KupUXgCjEFfuZmgWKEoU7VHU58tVSNzsZ7QtJm3Tend5H8QssM0jxZzLI4SnXd4IRMEAubuXKLtQVEXWA0k1p+yEu7sthV3zSJOVxfOYVPPmWdzinz0v3SqOfkACeVb+/km6/Yyxsof0I7QxEfy0MqOHnPeT7bT1KHgelXuRNwkzG+wXbHnWG1B0jqYIfuAH7v5KblLi01UviUTJYpJzxru6y8phh1MltSuGUhMbRUYs+brZ1B2TttiNLf1Fc3VZ6XzRiLY0n+MnKbhptCGVDCcEKRRyeMn5O+Fas1xM2mb6bWmNFZtOLG8aaXi0se/vrWQyI6PLbg+mgCMobEBAbynieKeMiBI/NWDr7azgzHn2awyft0jcONxERtAf6VQrffW5FLC/vYmCqxSjges1C4aUnLm4uV2ftQVWsa79dmR5Sen+iLvHOYxBeIZ7hhez0Xp+ptTEbbbR/49KRdyGweZHz2nAdT/Wz46n700ttKLU6vr7K4obRiWWDDfkclsWZ4akFmzke8o8N1ZoiTSQIn4mbof7sIfeRGLaDwCoL2KyuXQ/0dkX7tTQlwVSK49iuhlNlekZyjE+LLO1OtRihC8237m64Siu/Tp5pt5zVSf/xeU2f3dpJbsi4b5CqsWnq04zBSPQwD7aEzmpQsKzO+r54F3K4fRW7kJEb5uxVlLPwWkJ9OJWlk5WCs683UcbNK3r9pto7u46MuGHeyzUxPJJsp8Gdx/9uoXNe6QONiaNMe/wo5flDSvWWxfulczvfsPGuPGe/imAUYPjA7WFbRvqpq/Dd25mvt59cRHibL1NQ09KNSvSZqWyv/Z4Vqy5lttNuuOgvX0m5u035R77u42ai+N/qSNiTtMBK28r2PPYbC9PiqzeGImeww0aiqzSG7TAju0nXa/UguldENkWz7i5scz7y2EopTzuIxTVsXqjM5AvFDaaani7s1SMp7W75c0o+WWMiRPJq9j+Y2/v4VuLf0tgdmzDjubtOh2/tBwloSrXaihG+/awsbGxtlk0hmBxo3eH639s7D09Ki1p5dFVRXS48zRl+uP3cjdMUhDIMIRf4Xz0ksjqsuW8lDaeVUF/FENPTW9iKSTibPg+UpLV7Dwx56INHc8byZMLSv1bX+H7YSsskth0yy1mcDY8493wNjZepAfocvW06T+7FUez5nDZpdRoJDV3lKWeJ2/nA73YjlSTSQN8aSdWq2gR2kkPvt4RPnu7rT4iMUw2F2eSLI+d/pjLlPOTtcwH2bzZn/yoTDb4V5ym5j3yN8OJQKlbxVqXcDsauuOPM+HlF9Jms6sy3XlQSS6kYA0yZZo0OUfc0v4sKROPSxdxhA5MsWym/ACOkgmjMk3m8e+AyLErz1EQ2bHJr03IQUdHopC40sXxnGdeBC3v8nl+MPltCmILqSQhioIAfScqdaLm0TYiNk+bhMwiFSalLAw0RoLPw9lJxSz73uYFODn953fDgznoGSKR/dLVBQRsP+t8CclGvFS3/dNA7ocT/l7S2xxRID3YnfEjCAYJIFfq96seb+KjSL4/mKiBGkyCjeag39M7kavd05ZtfldsLthVlK3rri5XoSGXdyi/2Cb8w2Djd6jE+QW8tl61/2dSlzG0zQb2BNHL+WW/jx9oi2zy2VA8NrTNBFp70GURnQ9++mk3yd4W7q02yKPscA8VF0VkWhr5Hj+Y9/8ccuwfAwMDAwMDAwMDAwMDAwMDAwMDAwMDAwMDAwMDAwMDAwMDAwMDAwMDAwMDAwMDAwMDAwMDAwMDg/8c/C+0ktSBQnQpUAAAAABJRU5ErkJggg==;" vertex="1" parent="1">
          <mxGeometry x="835" y="22.16" width="110" height="57.84" as="geometry" />
        </mxCell>
        <mxCell id="UONCgqDGB37mJuwjFdoh-3" value="" style="shape=image;imageAspect=0;aspect=fixed;verticalLabelPosition=bottom;verticalAlign=top;image=data:image/png,iVBORw0KGgoAAAANSUhEUgAAAfQAAADIBAMAAADsNw7bAAAAIVBMVEWLjY////8Aq+X2+vxgzfEct+up5fmzs7fR09Xf7fGXmZv9fzvCAAANO0lEQVR42u2cv08byxbHHVFgXGU1hmC67LWR0rFZwo90BoOUEl+DRIkBS+mMUph3KyMKSKo4kFxIZURBLn/l2935sWdmzuyuffOqd1ZRZO8v72fOOd85c2aWkvd/u5UIndAJndAJndAJndAJndAJndAJndAJndAJndAJndAJndAJndAJndAJndAJndAJndAJndAJndAJndAJndAJndAJndAJndAJndAJndAJndAJndAJndAJndAJndAJndAJ/Xeis7vB8/Pz4DpwXRCdMBhchxP/ELu7HpxffQ7cZ9z3evfBtBy1Xu/k4wjs2OydtFq9j7noi9fX15/jDxv9Et8qn3GAq+hQfPx8NNmTXcUXjSulygC/sHbS9v2239gdTQO+0Iqu9tt1tWNtJ/4e3a+xC1sz+pHOSEdfip5rNjrn71K6/cIesK8OVy7lzr8qlcqsfe7SONou+Of1Mbjxf5Abr8WPzrcP6llP2+32gX3ufqPR2E4+vYs+xbi3+/xSic5O/XSrH6srv3d6P046CLrH1kulTPZFSFD6JPYO4y+2p35Vu437Ije+BY/qK9pu9GXZRo9baS/59Jbj3jbElYKKbfnati3btx7FaXj7p4b+Mjajt6g/oWJDbA7tHrdb6dJ6wr7wpMjmpZwb3+qPejAZelV5TD29Dm5tYffuUfx/uG9bnY3NRxzZMBo7N/Wr+POZpQrx3rnEV0rWdqF7u/Go/ocU4SADncXonVoaK9zq78zb+fXkQWvL8R07XrVpoX+1nrCs/eR7+3igQ2rBEe+dSbTARtekATy72BrcTKeFrA5snFh9wbqd77+JD8w3ve79/U5z4Y3l8KVs6yDG457L+iaM8vIz6RSmvwAnYV37Uet5Vm8qq8Otg7l7vO3HNuoGrBsG1T3WMq2ePtez8nxoyyGCwGMZ1bkVuRMxutZSVeRRuTJlWP21sjoI6aTFMKP7fixtrcDrRsdfx//rVhfb+U2cD1xp0Zz0+PKhz2/CzTsZ9o+K8gJTOWD02cH9zf3dVd+SkR3p5btRVrIFozNP5qDVd4+9YPM+2vlNekAv+r1eq5260XLkYDE6+zZCrf4pTGjDDVOLhdF/JXkckxlA0javENVmUguEgpzz3YG88NE0+m7AQhaGt+JZ94oqvBAHmV6ytuzMudVqoouPxH05svp9r9v03h5hVv/kSTu/0oVuEZLHbSN6rDhoa0rRbJVjQ7M729BvzO3c2A6j9ozbRiQ3B0UVPrn6SCXW3N/rNxKDBZy9GVs9+rF29L+GvoTEdmKuiha6mpj9TPeMldqrTfV4iQg+Qn/4CW+8IGJbXc0WlMOfFrX6Nvjt1XjHMXyYpHGXudXDd00PtfosvCKEGs/7/MrI7uYvRDBUEJVLTq+N9fvylpLB/p3bGJzAol31UU5Koym8dk4Y5UeHoZU2RMHeiWN97U30f2Bb/TGwMtEH6P6Ptk8n+1bs/Ae0xuLY0IH3IAdKTNLQm2arwa3WLajwH7XLowTeSMWS34g7t1jbd5J/ptUriM/OgWYwjCd2wj5ct6yM540A0YEHkMht68dXjyfI5mSuBuzeMxQ3Se9GLPLzrSjXa7IDu183M7JxGt192+jS7COYuakMDc3wPBA9M6ndDKN7TPhrwVjfM08wU4ykEzn2oiwu7twOV/dsq5t5eCLOKWTFGp0NpfnGZta7jub1UCVm0jHWnuO0PKsL9NwR/gKXeLY1qkXfbnYCy+oV85L3KoTf40Z8JbupvhkOK/hoDjTZXHx6DTO62opZvZ5fIBK9WzU59fuhNWg1BiuS7EKZ9wz33Cgk2IqRyrIh1pTa0bJyxWUvw+r5Cv8mv4gj0L3Teu/HiZIGYPUZdPB1Jj204jBf7BfWuBUd0WiXlZXZtqdABwr/ZzH0PUeB6qV7yP0gRauM3HNJXLdhNF2INqWNHod6Y+RNGevc6keFHL7RtBQQWP3CumYs0F+BHt6zhHxGZuxGqHxyPotSxXZmrBaL9RuvkMxtOyqyL9HyGpNK7GgZEexl28Ffui5IG+aXVLk/vCkcHlg9v37dxbsRYPUA74TE6KvidN1ZrQaZVamEJb6yVLnm1OiJ1Ru55Ktt/GdSq8+6+1+3aK2IRtH9gmWpnCj1l+VQ48ibItZThc/r25gYBjczrF5xy1HfmZolvhtquamq1qFW3xiAut+7rF69YJWmnunwTBU/tiez+lAgj516Lbt+PXFdRGWR3V8PxrAYz75lW62Qwruv3/xxspOWcbJifRaP9ZjHrdc16ehaPodU5jeu/hpb1d4kmEf/TuFxdKZKU3JrTmX1mjshD8UhpgnbVzO5u7JK/InCb2UnY91p0ddadm2yOZnVRawvZiTk0rU1Qxsp/d9jpCZb/p+hsxNnjXcyhZ8T6CN3dnJmTsHog50vWDVaob/2/p3Cd6wQ38LIM2PdrfAJ+o17/PkoRX0mMCZeHOR9gd7OTsGLKbypPjZ5ffpY38ix+gujK1+CHrBuTz9cDkWstzMG60WzOdPqNnnnpp0X6070xYy0tC+7sbSu4cEhrDVdVTkPgyFw+L3fG+vvTIHrfOQjtylivSziOMPqD8YUDMzl9Omqp0GyomQCqx9MZnV96rLR2T1mARi0ThbrUfxmWV2hg8EaKMunRq8Mrm8CMWj8UkzmpujX06moTqt34/FpDa+dE+tPzmpKBjpTYb2ptA2oHJMT00+fQy9ghnwmlbk/fqfCq/UUu8cBGJv708V6GfJloKeDcNjPjcWapAAdG2xllaemUXgxl9M5Dq0rpoj1GZC32FvqEGk5DkxI8Pm12YsAHxt0s9EnVnhRmF8OHbW5CWO92PAFEg/TwjWv71uJ4Bdx32/ZI6/JFT7x93qIXTGZ1RkctJbRpwM1DlV6B0X5IV7EHoqmzKmyONB998jN55MNyBWN6XJ4XotBHxHUb5JBzgt9/NrHBfKLQK/iTyo3fEzLfKfVF3Cje/jPwMVjzkHrirPeBLpwWZo0Vc4hnzP5BSocvZZeZMb6Al7rY3gxqEg2p2emlsDP6eM1OPEyxqs1MgWsZU8hzKOlt4QPV/gqnrbV8MJtbqzPeXaZXVe5B0/LX8HECxMxgKGf5Rej51EpqPpOhXfU+tZwSSlUm2MlR5kRzpRLTwcxUMN7Rab8optZl8Sl4K071udx81bxwm2R8bqQqxF+ghKBxDdewImXRTxQ1EiQ98PNzKmDPXdV3bL6PD7x6igB5ir8nPLlRzyhmdWMWYYTLzX8slQ1q5lTpQydjGznWN1GdySNWQqfzoiu4x7/XteA2AeeYEWe4Q6fhgSfZHZ5fJKR1zFXcOTw82j8AF2cvF/nDFZWxtcWnWmdfAnWJ5l7AncOpF+HLvQuEux88W+Gwlvi8N0RVbkKP6OmU6yEjg/LzO/wVmi/PgS+kIC45lqx+XMxNsNjvYr163wR4cibTuEl1SVi9LJhTm3ipS8mZyyjS83k7muYfbUJURqhpfrZ2RxmdExPcmtzM6lgGTHx01yAU5PoD9BtDJ3jDiTvFG7Z0c625HdusEMrBlw5PD//yO7U0apAsViXhaZ/zC5KX1sk1/5e6iEwMoMINMd3e/3XabzQE3RksGFW/Syri4WR8GZiofSRN5nCp52bKqym00/iPZg5GwuwvjKdpTY0zqgZ77sIOt4WfMWb3wkMEFcOL5ZFfwA23/Gd/Wexfj3yzLH+utLGGHmVY8lcb8pEeUqGq3yXrGx5sFoqepsuYFdVRnlwQVWaHVWaqlxlLedh2q5ZpyKxXjbk+9cNnEQr2ym9tlP6wfnnMNxQi+Fhgy3IeYJkuecPOTd6BDw+PghB3BXZUC5/370P73+omTc8aSqo8FLPE6M+/eV4f4fpKufhb43oDZa+/9HodPbl52WjYfzGzk7bmkayK7Lf/GLzbUVnX1zTKNYba1y9oeizPvbmywgpJerbkdUwyAwaUodHb+Yo/xWNdZTCWjrK/Rt2xOuul4WMjlffDo2+SZtBy5x9ObVvJtZZT63wXrKwPedVPT4wmfUw1QfuHuZNk4G+LrDMfpQ502q/OeZckli0X8cs+A9eutDfh7AabNaqnZmPq5nJfEvzMGemddUkP2CZ6EVi3ct/5xVMwXhmAuAmN1/QamwH7oPLeTOtzPGW6BQKr+UskP3cNQVnhsEGFInzEAk8trCVEZqQ/SDMXVWhXppKbvbBy0MfPD0N7INfnp+fNdsG6fvtl+jb+1eDgf2CeqiW0gwuHe/8b7bUNKEtSjW1EGo3ajh20mq1eA+wGn3aRRoyfXVu5OWheywIA6/IFtwNnsfxXzWY4O8WsJDdRW0SpTXu32BrJzvt/U4Lr8qvtfajg7s8sy/woJu9VvInC5iXjz4BB0vf0Jhgi58380GStmfZvxxM9qQ5x+nPdBA6oRM6oRM6oRM6oRM6oRM6oRM6oRM6oRM6oRM6oRM6oRM6oRM6oRM6oRM6oRM6oRM6oRM6oRM6oRM6oRM6oRM6oRM6oRM6oRM6oRM6oRM6oRM6oRM6oRM6oRM6oRP6dNt/ARGttLTvWRPLAAAAAElFTkSuQmCC;" vertex="1" parent="1">
          <mxGeometry x="690" y="26.079999999999988" width="125" height="50" as="geometry" />
        </mxCell>
        <mxCell id="UONCgqDGB37mJuwjFdoh-5" value="Windows Server 2019&lt;br&gt;.Net Framework&lt;br&gt;IIS&lt;br&gt;.Net Extensions&lt;br&gt;ASP&lt;br&gt;ASP.net&lt;br&gt;Static content&lt;br&gt;DB" style="rounded=0;whiteSpace=wrap;html=1;align=left;" vertex="1" parent="1">
          <mxGeometry x="220" y="250" width="206" height="135" as="geometry" />
        </mxCell>
        <mxCell id="UONCgqDGB37mJuwjFdoh-6" value="AD&amp;nbsp;" style="rounded=1;whiteSpace=wrap;html=1;" vertex="1" parent="1">
          <mxGeometry x="625" y="314.99999999999994" width="190" height="60" as="geometry" />
        </mxCell>
        <mxCell id="UONCgqDGB37mJuwjFdoh-7" value="" style="endArrow=classic;html=1;entryX=0.453;entryY=1.1;entryDx=0;entryDy=0;entryPerimeter=0;exitX=1;exitY=0.75;exitDx=0;exitDy=0;" edge="1" parent="1" target="UONCgqDGB37mJuwjFdoh-6">
          <mxGeometry width="50" height="50" relative="1" as="geometry">
            <mxPoint x="511.5" y="457.5199999999999" as="sourcePoint" />
            <mxPoint x="560" y="180.44" as="targetPoint" />
          </mxGeometry>
        </mxCell>
        <mxCell id="UONCgqDGB37mJuwjFdoh-8" value="Authentication" style="edgeLabel;html=1;align=center;verticalAlign=middle;resizable=0;points=[];" vertex="1" connectable="0" parent="UONCgqDGB37mJuwjFdoh-7">
          <mxGeometry x="-0.2463" y="-1" relative="1" as="geometry">
            <mxPoint as="offset" />
          </mxGeometry>
        </mxCell>
        <mxCell id="UONCgqDGB37mJuwjFdoh-9" value="Authenticator" style="rounded=1;whiteSpace=wrap;html=1;" vertex="1" parent="1">
          <mxGeometry x="750" y="394.99999999999994" width="190" height="60" as="geometry" />
        </mxCell>
        <mxCell id="UONCgqDGB37mJuwjFdoh-11" value="" style="endArrow=classic;html=1;entryX=0.5;entryY=0;entryDx=0;entryDy=0;exitX=0.642;exitY=1.067;exitDx=0;exitDy=0;exitPerimeter=0;" edge="1" parent="1" source="UONCgqDGB37mJuwjFdoh-6" target="UONCgqDGB37mJuwjFdoh-9">
          <mxGeometry width="50" height="50" relative="1" as="geometry">
            <mxPoint x="521.5" y="467.52" as="sourcePoint" />
            <mxPoint x="721.0700000000002" y="391" as="targetPoint" />
          </mxGeometry>
        </mxCell>
        <mxCell id="UONCgqDGB37mJuwjFdoh-13" value="" style="endArrow=classic;html=1;exitX=0.642;exitY=1.067;exitDx=0;exitDy=0;exitPerimeter=0;" edge="1" parent="1">
          <mxGeometry width="50" height="50" relative="1" as="geometry">
            <mxPoint x="850" y="395" as="sourcePoint" />
            <mxPoint x="900" y="305" as="targetPoint" />
          </mxGeometry>
        </mxCell>
        <mxCell id="UONCgqDGB37mJuwjFdoh-14" value="" style="rounded=1;whiteSpace=wrap;html=1;fillColor=none;" vertex="1" parent="1">
          <mxGeometry x="800" y="195" width="180" height="107.8" as="geometry" />
        </mxCell>
        <mxCell id="UONCgqDGB37mJuwjFdoh-15" value="Mobile client" style="outlineConnect=0;fontColor=#232F3E;gradientColor=none;strokeColor=#232F3E;fillColor=#ffffff;dashed=0;verticalLabelPosition=bottom;verticalAlign=top;align=center;html=1;fontSize=12;fontStyle=0;aspect=fixed;shape=mxgraph.aws4.resourceIcon;resIcon=mxgraph.aws4.mobile_client;" vertex="1" parent="1">
          <mxGeometry x="910" y="213.44" width="60" height="60" as="geometry" />
        </mxCell>
        <mxCell id="UONCgqDGB37mJuwjFdoh-16" value="Client" style="outlineConnect=0;fontColor=#232F3E;gradientColor=none;strokeColor=#232F3E;fillColor=#ffffff;dashed=0;verticalLabelPosition=bottom;verticalAlign=top;align=center;html=1;fontSize=12;fontStyle=0;aspect=fixed;shape=mxgraph.aws4.resourceIcon;resIcon=mxgraph.aws4.client;" vertex="1" parent="1">
          <mxGeometry x="837" y="213.44" width="60" height="60" as="geometry" />
        </mxCell>
        <mxCell id="UONCgqDGB37mJuwjFdoh-17" value="" style="endArrow=classic;html=1;exitX=0.622;exitY=1.03;exitDx=0;exitDy=0;exitPerimeter=0;" edge="1" parent="1" source="UONCgqDGB37mJuwjFdoh-14">
          <mxGeometry width="50" height="50" relative="1" as="geometry">
            <mxPoint x="860" y="405" as="sourcePoint" />
            <mxPoint x="870" y="394" as="targetPoint" />
          </mxGeometry>
        </mxCell>
        <mxCell id="UONCgqDGB37mJuwjFdoh-19" value="" style="endArrow=none;html=1;entryX=1;entryY=0;entryDx=0;entryDy=0;endFill=0;" edge="1" parent="1" source="UONCgqDGB37mJuwjFdoh-4" target="UONCgqDGB37mJuwjFdoh-5">
          <mxGeometry width="50" height="50" relative="1" as="geometry">
            <mxPoint x="364" y="257.46" as="sourcePoint" />
            <mxPoint x="462.02" y="273.44" as="targetPoint" />
          </mxGeometry>
        </mxCell>
        <mxCell id="UONCgqDGB37mJuwjFdoh-20" value="" style="endArrow=none;html=1;entryX=0;entryY=1;entryDx=0;entryDy=0;endFill=0;exitX=0;exitY=0.125;exitDx=0;exitDy=0;exitPerimeter=0;" edge="1" parent="1" source="UONCgqDGB37mJuwjFdoh-4" target="UONCgqDGB37mJuwjFdoh-5">
          <mxGeometry width="50" height="50" relative="1" as="geometry">
            <mxPoint x="475.58155637185996" y="435.3720490614146" as="sourcePoint" />
            <mxPoint x="436" y="345" as="targetPoint" />
          </mxGeometry>
        </mxCell>
        <mxCell id="UONCgqDGB37mJuwjFdoh-21" value="" style="curved=1;endArrow=classic;html=1;rounded=0;edgeStyle=orthogonalEdgeStyle;entryX=0;entryY=0.5;entryDx=0;entryDy=0;" edge="1" parent="1" target="UONCgqDGB37mJuwjFdoh-14">
          <mxGeometry width="50" height="50" relative="1" as="geometry">
            <mxPoint x="490" y="420" as="sourcePoint" />
            <mxPoint x="740" y="400" as="targetPoint" />
            <Array as="points">
              <mxPoint x="490" y="249" />
            </Array>
          </mxGeometry>
        </mxCell>
        <mxCell id="UONCgqDGB37mJuwjFdoh-22" value="http://CSESV-NOVACUT01:81" style="edgeLabel;html=1;align=center;verticalAlign=middle;resizable=0;points=[];" vertex="1" connectable="0" parent="UONCgqDGB37mJuwjFdoh-21">
          <mxGeometry x="0.0231" y="-45" relative="1" as="geometry">
            <mxPoint as="offset" />
          </mxGeometry>
        </mxCell>
        <mxCell id="UONCgqDGB37mJuwjFdoh-23" value="FlowServer" style="text;html=1;strokeColor=none;fillColor=none;align=center;verticalAlign=middle;whiteSpace=wrap;rounded=0;" vertex="1" parent="1">
          <mxGeometry x="400" y="454" width="40" height="20" as="geometry" />
        </mxCell>
        <mxCell id="UONCgqDGB37mJuwjFdoh-4" value="CSESV--NOVACUT01" style="outlineConnect=0;fontColor=#232F3E;gradientColor=none;fillColor=#232F3E;strokeColor=none;dashed=0;verticalLabelPosition=bottom;verticalAlign=top;align=center;html=1;fontSize=12;fontStyle=0;aspect=fixed;pointerEvents=1;shape=mxgraph.aws4.traditional_server;" vertex="1" parent="1">
          <mxGeometry x="460" y="425" width="45" height="78" as="geometry" />
        </mxCell>
        <mxCell id="UONCgqDGB37mJuwjFdoh-26" value="VMDK" style="shape=cylinder3;whiteSpace=wrap;html=1;boundedLbl=1;backgroundOutline=1;size=15;" vertex="1" parent="1">
          <mxGeometry x="560" y="585" width="50" height="45" as="geometry" />
        </mxCell>
        <mxCell id="UONCgqDGB37mJuwjFdoh-27" value="Virtual Networks&lt;br&gt;LAN - Internal" style="html=1;outlineConnect=0;fillColor=#CCCCCC;strokeColor=#6881B3;gradientColor=none;gradientDirection=north;strokeWidth=2;shape=mxgraph.networks.bus;gradientColor=none;gradientDirection=north;fontColor=#ffffff;perimeter=backbonePerimeter;backboneSize=20;" vertex="1" parent="1">
          <mxGeometry x="407" y="620" width="150" height="60" as="geometry" />
        </mxCell>
        <mxCell id="UONCgqDGB37mJuwjFdoh-28" value="" style="endArrow=classic;html=1;" edge="1" parent="1" target="UONCgqDGB37mJuwjFdoh-27">
          <mxGeometry width="50" height="50" relative="1" as="geometry">
            <mxPoint x="487" y="615" as="sourcePoint" />
            <mxPoint x="337" y="650" as="targetPoint" />
            <Array as="points">
              <mxPoint x="487" y="615" />
            </Array>
          </mxGeometry>
        </mxCell>
        <mxCell id="UONCgqDGB37mJuwjFdoh-29" value="DAHL Internal infrastructure" style="rounded=0;whiteSpace=wrap;html=1;rotation=-90;fillColor=#dae8fc;strokeColor=#6c8ebf;" vertex="1" parent="1">
          <mxGeometry x="-76.25" y="418.75" width="510" height="27.5" as="geometry" />
        </mxCell>
        <mxCell id="UONCgqDGB37mJuwjFdoh-30" value="" style="rounded=0;whiteSpace=wrap;html=1;strokeColor=#FFFFFF;" vertex="1" parent="1">
          <mxGeometry x="465" y="460" width="35" height="40" as="geometry" />
        </mxCell>
      </root>
    </mxGraphModel>
  </diagram>
</mxfile>
